<?xml version="1.0" encoding="UTF-8"?> <svg xmlns="http://www.w3.org/2000/svg" version="1.1" id="abdd50a7-d504-42d6-abd9-1be1b582ab53" x="0" y="0" viewBox="0 0 738.2 542.3" xml:space="preserve"><style>.st0{fill:#ffb8b8}.st1{fill:#f0f0f0}.st2{fill:#3f3d56}.st3{fill:#e6e6e6}.st4{fill:#a997df}.st5{fill:#ccc}.st6{fill:#2f2e41}.st7{fill:#fff}</style><path class="st0" d="M145.9 282.4l-9.7-103.1-29 1 23 101.8c-5.1 4.3-5.7 11.8-1.5 16.9 4.3 5.1 11.8 5.7 16.9 1.5s5.7-11.8 1.5-16.9l-1.2-1.2z"></path><path id="fe9c178f-ba3b-4efa-8f02-91d714d1abd5" class="st1" d="M697.2 512.2c-.3 10-1.9 19.9-5 29.4-.1.2-.1.4-.2.7h-18.5c0-.2 0-.4.1-.7 1.2-14.2 8.4-100.7-.2-115.5.8 1.2 25.3 40.9 23.8 86.1z"></path><path id="f50bd4c5-ec05-4fbf-a485-473f9149da92" class="st1" d="M694.3 540.9c-.3.5-.7.9-1 1.4h-29.1c.2-.4.5-.9.8-1.4 4.8-8.7 19-34.6 32.2-61.5 14.2-28.9 27.2-58.9 26.1-69.7.3 2.4 10.1 77-29 131.2z"></path><path id="b6259e39-7a62-4774-8afe-aeda515ec4c0" class="st1" d="M55.4 497.1c.4 14.9 2.9 29.6 7.4 43.8.1.3.2.7.3 1h27.6c0-.3-.1-.6-.1-1-1.8-21.2-12.5-150 .2-172-1.1 1.7-37.6 60.9-35.4 128.2z"></path><path id="f2d2e7cd-3eee-4477-b585-9c3536763a3f" class="st1" d="M57.4 540.8c.2.3.5.7.7 1h20.7c-.2-.3-.3-.6-.5-1-3.4-6.2-13.6-24.6-23-43.8-10.1-20.6-19.4-41.9-18.6-49.7-.2 1.8-7.2 55 20.7 93.5z"></path><path id="b281e673-bc66-4b3c-8141-26a0e4a40fd7" class="st2" d="M655.6 434.2H367.3c-2.9 0-5.3-2.4-5.3-5.3v-71.5c0-2.9 2.4-5.3 5.3-5.3h288.3c2.9 0 5.3 2.4 5.3 5.3v71.5c0 2.9-2.4 5.3-5.3 5.3zm-288.3-80.1c-1.8 0-3.2 1.4-3.2 3.2v71.5c0 1.8 1.4 3.2 3.2 3.2h288.3c1.8 0 3.2-1.4 3.2-3.2v-71.5c0-1.8-1.4-3.2-3.2-3.2H367.3z"></path><circle id="b3fc6bd5-ca87-44d7-abba-b33fcf0fce6e" class="st3" cx="340.1" cy="498.7" r="21.7"></circle><path id="a4c0ef2a-4063-4b4c-b7a5-712e67abf83e" class="st3" d="M390.3 485c-2 0-3.6 1.6-3.6 3.6s1.6 3.6 3.6 3.6h170.9c2 0 3.6-1.6 3.6-3.6s-1.6-3.6-3.6-3.6H390.3z"></path><path id="b6aac15c-fc94-4bcf-bd22-2b2a2d48a317" class="st3" d="M390.3 506.7c-2 0-3.6 1.6-3.6 3.6s1.6 3.6 3.6 3.6h73.5c2 0 3.6-1.6 3.6-3.6s-1.6-3.6-3.6-3.6h-73.5z"></path><circle id="b30606c0-bedc-4458-8bc1-74f9b5197cfe" class="st3" cx="412.1" cy="392.7" r="21.7"></circle><path id="b0251ef9-ec49-4884-8989-e65898cec086" class="st3" d="M462.3 379c-2 0-3.6 1.6-3.6 3.6s1.6 3.6 3.6 3.6h170.9c2 0 3.6-1.6 3.6-3.6s-1.6-3.6-3.6-3.6H462.3z"></path><path id="f3fbb845-d219-495e-9ae9-9928c3e8cc79" class="st3" d="M462.3 400.7c-2 0-3.6 1.6-3.6 3.6s1.6 3.6 3.6 3.6h73.5c2 0 3.6-1.6 3.6-3.6s-1.6-3.6-3.6-3.6h-73.5z"></path><path id="e4b1ee1b-a1a6-4c2a-970c-d47d8b3fd870" class="st2" d="M599.6 257.2H311.3c-2.9 0-5.3-2.4-5.3-5.3V5.3c0-2.9 2.4-5.3 5.3-5.3h288.3c2.9 0 5.3 2.4 5.3 5.3v246.5c0 3-2.4 5.4-5.3 5.4zM311.3 2.1c-1.8 0-3.2 1.4-3.2 3.2v246.5c0 1.8 1.4 3.2 3.2 3.2h288.3c1.8 0 3.2-1.4 3.2-3.2V5.3c0-1.8-1.4-3.2-3.2-3.2H311.3z"></path><circle id="b10e3043-e731-4e82-8fca-75f9298f00b8" class="st4" cx="356.1" cy="43.3" r="21.7"></circle><path id="b8c117d2-374b-429b-9a52-be2e8d6b8684" class="st5" d="M406.3 28.9c-2 0-3.6 1.6-3.6 3.6s1.6 3.6 3.6 3.6h170.9c2 0 3.6-1.6 3.6-3.6s-1.6-3.6-3.6-3.6H406.3z"></path><path id="b1daea5a-aca4-46bb-ab1c-9e5888030a38" class="st5" d="M406.3 50.6c-2 0-3.6 1.6-3.6 3.6s1.6 3.6 3.6 3.6h73.5c2 0 3.6-1.6 3.6-3.6s-1.6-3.6-3.6-3.6h-73.5z"></path><path id="a9f6ff6a-7451-4bea-bc5a-628f4bebd58b" class="st6" d="M233.2 521.3h-22l-13-183-.5 46.5-48 128-19-15 31.5-127.5-15-71h98l-12 222z"></path><circle id="a663db6f-60a1-421c-a7e7-5d04aff0cacb" class="st0" cx="198.2" cy="47.3" r="26"></circle><path id="f3cb7545-9624-45d8-a11d-440f1a34aab0" class="st2" d="M248.2 313.3c-42.5-10.9-82.3-18.2-107-5 4.3-45.4-.7-103.4-15.5-164-4.8-19.7-1.5-37.4 16-47.5l23.5-13.5 36 1L220 94.7c18.9 9.4 29.2 30.2 25.3 51-10.2 53.1-4.7 110.4 2.9 167.6z"></path><path id="f6231dd0-d8a8-465e-b214-b8e5de78c90d" class="st2" d="M151.2 186.3l-47-3c3.7-46.2 14.1-71.5 30-80l17 20v63z"></path><path id="b1bce2c7-12e1-4551-8863-d6d142670d08" class="st4" d="M668.1 225.2H379.8c-2.9 0-5.3-2.4-5.3-5.3V93.4c0-2.9 2.4-5.3 5.3-5.3h288.3c2.9 0 5.3 2.4 5.3 5.3v126.5c0 2.9-2.4 5.3-5.3 5.3z"></path><path id="b8b7ef86-e6be-48b5-b7f8-365881aa5bd2" class="st7" d="M438.5 132.1c-2 0-3.6 1.6-3.6 3.6s1.6 3.6 3.6 3.6h170.9c2 0 3.6-1.6 3.6-3.6s-1.6-3.6-3.6-3.6H438.5z"></path><path id="a9b62e3b-06cf-4a55-8c8f-4aeba6e5e4c7" class="st7" d="M438.5 153.1c-2 0-3.6 1.6-3.6 3.6s1.6 3.6 3.6 3.6h170.9c2 0 3.6-1.6 3.6-3.6s-1.6-3.6-3.6-3.6H438.5z"></path><path id="a12f9c39-a43a-4056-b48c-3363dc06a37f" class="st7" d="M438.5 173.9c-2 0-3.6 1.6-3.6 3.6s1.6 3.6 3.6 3.6H512c2 0 3.6-1.6 3.6-3.6s-1.6-3.6-3.6-3.6h-73.5z"></path><path id="e7c770ea-313c-4db5-898e-f0c92c7afc68" class="st6" d="M207.1 13.1c-2.4-.3-4.7 1-7.1 1.6-4.9 1.1-9.9-1.2-15-1.1-4.3.2-8.5 1.5-12.3 3.7-3 1.4-5.8 3.4-8.2 5.7-2.4 2.4-3.8 5.6-3.9 9 .3 1.9.3 3.9-.2 5.9-.5 1-1.1 1.9-1.8 2.7-1.3 2-1.6 4.5-.8 6.8 1 2.2 2.4 4.3 4 6.1 3.2 4.2 5.3 9.1 8.2 13.6 1.3 1.9 2.7 3.7 4.3 5.4.3.3.6.5.9.7.3.1.7.2 1.1.2 6.2.2 12.6.3 18.2-2.1 1.8-.6 3.4-1.9 4.4-3.5.8-2.3 1-4.7.4-7-.3-2.6-.2-5.2.2-7.8 0-.9.4-1.7 1-2.3.9-.6 2.1-.6 3.1-.1s2 .8 3.1.9c2.1 0 3.5-2.4 3.9-4.5-.5-3.9 1.2-7.7 4.4-9.9 3-3.8 4-8.7 2.7-13.3-1.5-4.7-5.8-10.2-10.6-10.7z"></path><path id="a71493d8-729a-4860-baf4-314f557d0142" class="st2" d="M583.6 540.2H295.3c-2.9 0-5.3-2.4-5.3-5.3v-71.5c0-2.9 2.4-5.3 5.3-5.3h288.3c2.9 0 5.3 2.4 5.3 5.3v71.5c0 2.9-2.4 5.3-5.3 5.3zm-288.3-80.1c-1.8 0-3.2 1.4-3.2 3.2v71.5c0 1.8 1.4 3.2 3.2 3.2h288.3c1.8 0 3.2-1.4 3.2-3.2v-71.5c0-1.8-1.4-3.2-3.2-3.2H295.3z"></path><path class="st0" d="M256.9 278.4l-9.7-103.1-29 1 23 101.8c-5.1 4.3-5.7 11.8-1.5 16.9 4.3 5.1 11.8 5.7 16.9 1.5s5.7-11.8 1.5-16.9l-1.2-1.2z"></path><path id="e519ab1a-c4cc-4940-8e12-0133c9949239" class="st2" d="M257.2 177.3l-44 10-2-72 25 1 21 61z"></path><path class="st6" d="M210.5 519.5h31.9c11.2 0 20.3 9.1 20.3 20.3v.7h-52.3l.1-21zM130.3 494.3l26.8 17.3c9.4 6.1 12.2 18.7 6.1 28.1l-.4.6-43.8-28.4 11.3-17.6z"></path></svg> 