<?xml version="1.0" encoding="UTF-8"?> <svg xmlns="http://www.w3.org/2000/svg" version="1.1" id="aadef149-4ba5-4382-9e09-7df651a328a5" x="0" y="0" viewBox="0 0 704 745.2" xml:space="preserve"><style>.st0{fill:#3f3d56}.st2{fill:#e6e6e6}.st3{fill:#2f2e41}.st4{fill:#ffb8b8}.st5{fill:#a997df}.st6{opacity:.2;enable-background:new}</style><ellipse class="st0" cx="352" cy="727.2" rx="352" ry="18"></ellipse><path class="st0" d="M534.7 172.9h-4V63.4c0-35-28.4-63.4-63.4-63.4H235.2c-35 0-63.4 28.4-63.4 63.4v601c0 35 28.4 63.4 63.4 63.4h232.1c35 0 63.4-28.4 63.4-63.4V250.9h4v-78z"></path><path d="M517.2 63.8v600.1c0 26.2-21.2 47.3-47.3 47.3H236.6c-26.2 0-47.3-21.2-47.4-47.3V63.8c0-26.2 21.2-47.3 47.4-47.3h28.3c-4.7 11.5.8 24.6 12.4 29.3 2.7 1.1 5.6 1.7 8.5 1.7h133c12.4 0 22.5-10.1 22.5-22.5 0-2.9-.6-5.8-1.7-8.5h30.3c26.1 0 47.3 21.2 47.3 47.3z" fill="#fff"></path><path class="st2" d="M517.2 535v128.9c0 26.2-21.2 47.3-47.3 47.3H236.6c-26.2 0-47.3-21.2-47.4-47.3V547.6c79.9-93.7 220.6-105 314.3-25.1 4.8 3.9 9.3 8.1 13.7 12.5z"></path><path class="st2" d="M299.2 511.2h-9.4l3.1-184.1h3.1z"></path><path class="st2" d="M307 211.2l15.2-23.5c-4.5-12.5-9.7-24.7-15.6-36.5l-9.8 7.9 7.8-12c-7.4-14.6-13.3-23.8-13.3-23.8s-30.5 48.1-40.7 99l19.5 30.2-21.6-17.5c-.8 5.9-1.2 11.9-1.2 17.9 0 60.3 19.7 109.2 44 109.2s44-48.9 44-109.2c0-18.7-4.2-38.2-10.1-56.3L307 211.2zM244.5 524.2h-4.6l1.5-89.3h1.6z"></path><path class="st2" d="M248.3 378.7l7.4-11.4c-2.2-6-4.7-12-7.6-17.7l-4.8 3.9 3.8-5.8c-3.6-7.1-6.4-11.6-6.4-11.6s-14.8 23.3-19.7 48l9.5 14.6-10.5-8.5c-.4 2.9-.6 5.8-.6 8.7 0 29.2 9.5 52.9 21.3 52.9s21.3-23.7 21.3-52.9c0-9.1-2.1-18.5-4.9-27.3l-8.8 7.1zM386.5 524.2h-4.6l1.5-89.3h1.6zM367.3 378.7l7.4-11.4c-2.2-6-4.7-12-7.6-17.7l-4.8 3.9 3.8-5.8c-3.6-7.1-6.4-11.6-6.4-11.6s-14.8 23.3-19.7 48l9.5 14.6-10.5-8.5c-.4 2.9-.6 5.8-.6 8.7 0 29.2 9.5 52.9 21.3 52.9s21.3-23.7 21.3-52.9c0-9.1-2.1-18.5-4.9-27.3l-8.8 7.1z"></path><circle class="st2" cx="241" cy="186.2" r="42"></circle><path class="st3" d="M392.9 234.2l76.6 1.9 10.4-91.4h-87z"></path><path class="st4" d="M373.8 162.6l-21.1-81.1s5.8-38.9 20-38.3-3.7 38-3.7 38l23.9 70-19.1 11.4z"></path><path class="st3" d="M415.2 365.7l3.3 33.1s-104.3 71.2-104.3 101-3.3 124.2-3.3 124.2l38.1 1.7 3.3-44.7s8.3-49.7 3.3-67.9l54.6-41.4s-16.6 19.9-13.2 54.6-5 102.7-5 102.7l39.7 3.3s5-36.4 6.6-39.7 9.9-62.9 1.7-79.5l67.9-79.5s23.2-29.8 0-59.6l-13.2-6.6-79.5-1.7z"></path><path class="st3" d="M312.6 617.4l-3.3 21.5-21.5 51.3s-36.4 18.2-9.9 21.5 36.4-3.3 41.4-11.6 14.9-21.5 14.9-21.5l-1.7 34.8h8.3l13.6-47.5c2.7-9.2.8-19.2-5.1-26.8-.1-.1-.1-.2-.2-.2-6.6-8.3-3.3-19.9-3.3-19.9l-33.2-1.6zM395.4 617.4l-3.3 21.5-21.5 51.3s-36.4 18.2-9.9 21.5 36.4-3.3 41.4-11.6 14.9-21.5 14.9-21.5l-1.7 34.8h8.3l13.6-47.5c2.7-9.2.8-19.2-5.1-26.8-.1-.1-.1-.2-.2-.2-6.6-8.3-3.3-19.9-3.3-19.9l-33.2-1.6z"></path><circle class="st4" cx="435.1" cy="162.1" r="33.1"></circle><path class="st4" d="M433.4 190.2l14.9 34.8 29.8-23.2s-18.2-24.8-18.2-28.1l-26.5 16.5z"></path><path class="st5" d="M436.7 210.1l7.1 4.3s22.8-12.1 28.6-20.6c0 0 20.7-6.9 28.9 9.7s-5 130.8-5 130.8 8.3 11.6 6.6 16.6 5 13.2 5 13.2v9.9s-94.4 1.7-94.4-6.6v-26.5l-9.9-3.3s-9.9 21.5-13.2 19.9-19.9-14.9-19.9-14.9 26.5-87.8 41.4-102.7l18.2-31.5 6.6 1.7z"></path><path class="st5" d="M433.4 211.7s-3.3-6.6-8.3-8.3-29.7-36.4-29.7-36.4l3.3-18.2-33.1-5s1.7 18.2 8.3 29.8 43 71.2 43 71.2l18.2-33.1h-1.7z"></path><path class="st4" d="M459.1 343.4L439.2 403s-41.4 46.4-18.2 46.4 34.8-41.4 34.8-41.4l28.1-59.6-24.8-5z"></path><path class="st3" d="M395.4 162.5c26.5-10.6 52.7-12.9 78.1 0v-21.4c0-7.7-6.2-14-14-14h-53.2c-6.1 0-11 4.9-11 11v24.4z"></path><path class="st5" d="M479.8 208.4s15.1-12.8 23.3 1.9 3.2 77.6 1.6 85.9-13.2 59.6-13.2 59.6l-39.7-8.3s-3.3-23.2 6.6-21.5l21.4-117.6z"></path><path class="st3" d="M496.3 194.2c-7.5-4.1-11-13.3-11.2-21.8-.2-8.5 1.8-17 2-25.5.1-1.7-.1-3.5-.4-5.2-.6-2.1-1.6-4.1-2.9-5.9-9.7-14.9-26.6-25.4-44.4-25.5-2.6 0-5.1.4-7.5 1.4-1.8.7-2.4.6-2.8 2.9-4.2-1.4-8.8-1.2-12.9.4-4.1 1.7-7.9 3.9-11.3 6.7-2 1.5-3.9 3.2-5.7 4.9-9.4 9.7-11.6 24.8-8.8 38 .9 4.3-3.4 8.5-6.9 11.1s-7.6 5.1-9.3 9.1c-1.7 3.9-.7 8.4-1.1 12.6-.8 8.1-6.1 15.1-13.7 18.1 1.6 1.9 4 2.7 6.4 2.2 2.4-.5 4.7-1.6 6.7-3.2 7.3-5.4 12.5-13.1 14.8-21.9 1 4.7.6 9.5.6 14.4.1 5.4-.9 10.7-2.9 15.7s-5.8 9.1-10.6 11.6c4.6 2.3 9.7.6 13.6-2.7 3.9-3.3 6.2-8.2 7.8-13 2.6-7.9 3.7-16.3 3.1-24.7 4.3 7.2 5.9 15.7 4.4 24-1.5 8.4-5.9 16.1-12.5 21.6 11.4-.1 22.6-2.9 32.8-8.2 2.6-1.2 4.9-3 6.7-5.2 3.3-4.5 2.5-10.7 1.6-16.1-.7-4.3 4.7-10.6 1.6-13.7-.9-.9-2.2-1.4-3.4-1.5-9.5-.9-18.2-5.7-23.3-13.7-3.5-5.6-5.9-12.1-5.9-18.1 0-18.2 14.8-32.9 32.9-32.9s32.9 14.8 32.9 32.9c0 3.3-.5 6.6-1.5 9.7-1.1 3.6-1.9 7.4-2.4 11.2-.6 4.4-1.5 8.7-2.7 13-2.3 8.2-6.3 16.5-13.7 20.8 2.5 1.4 5.3 1.4 8.1 1.7 9.2 1 18.9.8 27.3-3.3 8.4-4 15.1-12.6 14.5-21.9z"></path><path class="st6" d="M467.4 252.3l-8.7 71.1.4-67.8zM495.8 336.3l-3.6 22 8.3 3.3z"></path></svg> 