<?xml version="1.0" encoding="UTF-8"?> <svg xmlns="http://www.w3.org/2000/svg" version="1.1" id="a547a8a3-aa5a-4f51-930d-f6b3f6f2d923" x="0" y="0" viewBox="0 0 733 728.6" xml:space="preserve"><style>.st0{fill:#ffb8b8}.st1{fill:#a997df}.st2{fill:#2f2e41}.st3{opacity:.2;enable-background:new}.st4{fill:#e6e6e6}.st5{fill:#fff}.st6{fill:#f2f2f2}.st7{fill:#3f3d56}</style><path class="st0" d="M227 520.4c-3.1-4.6-9.3-5.9-13.9-2.8-.5.3-1 .7-1.4 1.1l-31.8-16.4 2 18.5 29.9 12.7c4.1 3.8 10.5 3.5 14.3-.6 3.1-3.4 3.5-8.6.9-12.5z"></path><path class="st1" d="M198.7 527.8c-1.2.5-2.5.5-3.7 0l-30.2-13.1c-10.3-4.5-18.7-12.5-23.5-22.7l-15.9-33.5c-4.9-6.3-3.8-15.4 2.5-20.3s15.4-3.8 20.3 2.5l27.9 51.7 25.7 19.4c1.5 1.1 2.1 3.1 1.6 4.9l-2.5 8.2c-.3.9-.8 1.6-1.5 2.2 0 .4-.3.6-.7.7z"></path><circle class="st0" cx="124.9" cy="394.7" r="24.6"></circle><path class="st0" d="M134.8 716.9h12.3l5.8-47.3h-18.1z"></path><path class="st2" d="M170.7 728.3h-38.5v-14.9h23.6c8.3 0 14.9 6.7 14.9 14.9z"></path><path class="st0" d="M94.8 716.9h12.3l5.8-47.3H94.8z"></path><path class="st2" d="M130.7 728.3H92.2v-14.9h23.6c8.3 0 14.9 6.7 14.9 14.9zM90.6 703.4c-.9-1-1.2-2.3-1.1-3.6l21.5-161 53.3 9.1 5.7-3.4-14.7 152.7c-.3 2.1-2 3.8-4.1 4l-16.1 1.3c-2.5.2-4.7-1.6-4.9-4.1v-.6l4.2-72.7c0-.3-.2-.5-.5-.5-.2 0-.5.1-.5.4l-20.7 76.7c-.5 2-2.3 3.3-4.3 3.3H93.9c-1.3-.1-2.5-.7-3.3-1.6z"></path><path class="st1" d="M127.5 550.1c-1.3-1.1-3.2-1.2-4.5-.2l-10.7 8.3c-2 1.5-4.8 1.2-6.3-.8-.4-.5-.6-1-.8-1.5C100 537.6 88.1 491.5 91 459c1.7-18.4 17.5-32.4 35.4-31.2 12.2.8 20.3 7.9 23.9 20.9 8.9 32.1 18.7 91 20.6 102.5.3 1.8-.5 3.6-2.1 4.6-5 3-10.8 4.7-16.7 4.7-7.1.1-15.6-2.4-24.6-10.4z"></path><path class="st0" d="M131.5 561.5c.5-5.5-3.7-10.4-9.2-10.8h-1.8l-14.9-32.5-9.8 15.8 15.6 28.4c.9 5.5 6.1 9.3 11.6 8.4 4.7-.8 8.2-4.6 8.5-9.3z"></path><path class="st1" d="M104.7 550c-1.2-.3-2.3-1.1-2.9-2.2l-15.7-28.9c-5.4-9.9-6.9-21.4-4.5-32.3l8.2-36.1c0-8 6.5-14.5 14.6-14.4 8 0 14.5 6.5 14.4 14.6l-10 57.9 8.3 31.2c.5 1.8-.2 3.8-1.8 4.9l-7 4.9c-.8.5-1.6.8-2.6.8-.3-.3-.6-.4-1-.4z"></path><path class="st3" d="M116.9 474.9l-9 38 13 32-9-31z"></path><path class="st2" d="M122.1 419.3c-9 .2-17.9-5.4-22-13.8-4-8.7-3.1-18.9 2.4-26.7 5.5-7.5 14.9-11.1 24.1-9.3 5-3.2 10.7-5.3 16.5-4.7s11.5 4.1 13.6 9.8-.2 13.1-5.5 15.4c-3.4 1.5-7.3.8-11 .2s-7.7-1-10.9 1-4.6 7.3-1.8 9.8c3.1 2.9 4.2 7.4 2.8 11.4-1.4 3.7-5.3 6.8-8.2 6.9z"></path><path class="st4" d="M592.4 172.9h-4V63.4C588.4 28.4 560 0 525 0H292.9c-35 0-63.4 28.4-63.4 63.4v601c0 35 28.4 63.4 63.4 63.4H525c35 0 63.4-28.4 63.4-63.4V250.9h4v-78z"></path><path class="st5" d="M574.9 63.8v600.1c0 26.2-21.2 47.3-47.3 47.3H294.4c-26.2 0-47.3-21.2-47.4-47.3V63.8c0-26.2 21.2-47.3 47.4-47.3h28.3c-4.7 11.5.8 24.6 12.3 29.3 2.7 1.1 5.6 1.7 8.5 1.7h133c12.4 0 22.5-10.1 22.5-22.5 0-2.9-.6-5.8-1.7-8.5h30.3c26.1 0 47.3 21.2 47.3 47.3z"></path><path class="st6" d="M547.3 352c-1.7-4.8-6.3-8-11.4-8H286.1c-6.7 0-12.1 5.4-12.1 12.1v191.7c0 6.7 5.4 12.1 12.1 12.1h249.8c6.7 0 12.1-5.4 12.1-12.1V356.1c0-1.4-.2-2.8-.7-4.1z"></path><path class="st5" d="M547.3 111.2c-1.7-4.8-6.3-8-11.4-8H286.1c-6.7 0-12.1 5.4-12.1 12.1V307c0 6.7 5.4 12.1 12.1 12.1h249.8c6.7 0 12.1-5.4 12.1-12.1V115.3c0-1.4-.2-2.8-.7-4.1z"></path><path class="st7" d="M547.3 111.2c-1.7-4.8-6.3-8-11.4-8H286.1c-6.7 0-12.1 5.4-12.1 12.1V307c0 6.7 5.4 12.1 12.1 12.1h249.8c6.7 0 12.1-5.4 12.1-12.1V115.3c0-1.4-.2-2.8-.7-4.1zm-.7 195.8c0 5.9-4.8 10.7-10.7 10.7H286.1c-5.9 0-10.7-4.8-10.7-10.7V115.3c0-5.9 4.8-10.7 10.7-10.7h249.8c5.9 0 10.7 4.8 10.7 10.7V307z"></path><path class="st4" d="M528.7 129v133.9c0 1.9-1.5 3.4-3.4 3.4H297.6c-1.7-.2-2.9-1.7-2.9-3.3V129c0-1.9 1.5-3.4 3.4-3.4h227.2c1.9 0 3.4 1.5 3.4 3.4z"></path><circle class="st1" cx="352" cy="175.6" r="29.6"></circle><path class="st7" d="M444.8 266.7H299.3l68.6-118.8c1.3-2.3 4.2-3.1 6.5-1.8.8.4 1.4 1.1 1.8 1.8l46 79.7 2.2 3.8 20.4 35.3z"></path><path class="st3" d="M444.8 266.7h-49.6l24.3-35.3 1.8-2.5.9-1.3 2.2 3.8z"></path><path class="st7" d="M525.5 266.7H400.1l24.3-35.3 1.7-2.5 31.7-46c2.1-3 7.1-3.2 9.5-.6.2.2.3.4.5.6l57.7 83.8z"></path><path class="st5" d="M482.7 363.2c-1.7-4.8-6.3-8-11.4-8H221.5c-6.7 0-12.1 5.4-12.1 12.1V559c0 6.7 5.4 12.1 12.1 12.1h249.8c6.7 0 12.1-5.4 12.1-12.1V367.3c0-1.4-.2-2.8-.7-4.1z"></path><path class="st7" d="M482.7 363.2c-1.7-4.8-6.3-8-11.4-8H221.5c-6.7 0-12.1 5.4-12.1 12.1V559c0 6.7 5.4 12.1 12.1 12.1h249.8c6.7 0 12.1-5.4 12.1-12.1V367.3c0-1.4-.2-2.8-.7-4.1zM482 559c0 5.9-4.8 10.7-10.7 10.7H221.5c-5.9 0-10.7-4.8-10.7-10.7V367.3c0-5.9 4.8-10.7 10.7-10.7h249.8c5.9 0 10.7 4.8 10.7 10.7V559z"></path><path class="st4" d="M464.2 381v133.9c0 1.9-1.5 3.4-3.4 3.4H233c-1.7-.2-2.9-1.7-2.9-3.3V381c0-1.9 1.5-3.4 3.4-3.4h227.2c1.9 0 3.4 1.5 3.5 3.4z"></path><circle class="st1" cx="287.5" cy="427.6" r="29.6"></circle><path class="st7" d="M380.2 518.7H234.7l68.6-118.8c1.3-2.3 4.2-3.1 6.5-1.8.8.4 1.4 1.1 1.8 1.8l46 79.7 2.2 3.8 20.4 35.3z"></path><path class="st3" d="M380.2 518.7h-49.6l24.4-35.3 1.7-2.5.9-1.3 2.2 3.8z"></path><path class="st7" d="M460.9 518.7H335.5l24.3-35.3 1.7-2.5 31.7-46c2.1-3 7.1-3.2 9.5-.6.2.2.3.4.5.6l57.7 83.8z"></path><path class="st1" d="M370.8 643.6h-72c-10.2 0-18.5-8.3-18.5-18.5s8.3-18.5 18.5-18.5h72c10.2 0 18.5 8.3 18.5 18.5s-8.2 18.5-18.5 18.5z"></path><path class="st6" d="M513.9 643.6h-72c-10.2 0-18.5-8.3-18.5-18.5s8.3-18.5 18.5-18.5h72c10.2 0 18.5 8.3 18.5 18.5s-8.3 18.5-18.5 18.5z"></path></svg> 