<?xml version="1.0" encoding="UTF-8"?> <svg xmlns="http://www.w3.org/2000/svg" version="1.1" id="ff41f38c-6ef4-4d72-b305-d437d63a9edd" x="0" y="0" viewBox="0 0 819.1 584" xml:space="preserve"><style>.st0{fill:#f1f1f1}.st1{fill:#fff}.st5{fill:#ffb8b8}.st6{fill:#2f2e41}</style><path class="st0" d="M747.9 525.4c7.2 12.7 1.1 55.6 1.1 55.6s-39.9-16.9-47.1-29.6c-7.2-12.7-2.7-28.8 10-36 12.7-7.2 28.8-2.7 36 10z"></path><path class="st1" d="M749.6 580.9l-.8.2c-8.2-38.8-36.7-65.1-37-65.3l.6-.6c.2.2 29 26.6 37.2 65.7z"></path><path class="st0" d="M813.2 539.8c-9.7 17.7-64.7 41.6-64.7 41.6s-9.1-59.3.7-76.9c9.7-17.7 32-24.1 49.7-14.4 17.6 9.8 24 32 14.3 49.7z"></path><path class="st1" d="M749 582.1l-.8-.9c39.8-37.8 50.1-90.4 50.2-91l1.2.2c-.2.6-10.6 53.7-50.6 91.7z"></path><path d="M192.6 405.9c-6.3 0-12.6-.8-18.6-2.4l-1.2-.3-1.1-.6c-40.2-20.2-74.2-46.8-100.9-79.2-22.1-27-39.4-57.6-50.9-90.5C5.9 193.6-.8 152 .1 110.3v-2C.1 88 11.4 70.2 28.8 62.9 42.1 57.3 163.2 7.6 172 4c16.5-8.3 34.1-1.4 36.9-.2 6.3 2.6 118.3 48.4 142.5 59.9 24.9 11.9 31.6 33.2 31.6 43.9 0 48.6-8.4 94-25 135-13.4 33.2-32.4 63.8-56.2 90.5-45.8 51.6-91.7 69.9-92.1 70-5.6 2-11.3 2.9-17.1 2.8zm-10.8-26.7c4 .9 13.1 2.2 19.1.1 7.6-2.8 46-22.7 81.8-63 49.6-55.8 74.7-125.9 74.7-208.4-.1-1.7-1.3-13.6-17.1-21.1C316.6 75.5 200.2 27.9 199 27.4l-.3-.1c-2.4-1-10.2-3.2-15.6-.4l-1.1.5c-1.3.5-129.9 53.3-143.6 59.1-9.6 4-13 13.9-13 21.8v2.5c-1 56.4 12.1 195.3 156.4 268.4z" fill="#3f3d56"></path><path d="M177.3 15.6S47.6 68.9 33.7 74.7s-20.9 19.7-20.9 33.6c0 13.9-10.4 195.3 164.5 283 0 0 15.9 4.4 27.9 0s164.9-78.5 164.9-283.6c0 0 0-20.9-24.3-32.4S203.9 15.6 203.9 15.6s-14.4-6.4-26.6 0z" fill="#a997df"></path><path d="M191.2 57.3v284.3S60.3 278.6 61.5 113l129.7-55.7z" opacity=".1"></path><path class="st1" d="M192.9 261.6L151.2 208l24.3-18.9 19.7 25.4 66.7-70.4 22.3 21.1z"></path><path class="st5" d="M547.2 568.2h15.5l7.3-59.6h-22.8z"></path><path class="st6" d="M543.3 563.2h30.5c10.7 0 19.4 8.7 19.4 19.4v.6h-49.9v-20z"></path><path class="st5" d="M599.2 568.2h15.5l7.3-59.6h-22.8z"></path><path class="st6" d="M595.3 563.2h30.5c10.7 0 19.4 8.7 19.4 19.4v.6h-49.9v-20zM571.5 358.8l3.7 189.2-30-1.9-20.8-120.5-6.6-82.2z"></path><path class="st6" d="M623 327l4.2 224-35-1-7.6-133.2-13.2-48.2-53.7-25.2 8.8-60.3 78.9-1.1 17.6 45z"></path><circle class="st5" cx="562.7" cy="99.6" r="26.8"></circle><path fill="#ccc" d="M584.9 137.7l4.1 6.3 11 30.6-8.8 119.5-51.5 1.1-6.5-137 13.7-17.2z"></path><path class="st6" d="M512.3 161.5l-8.8-1.1s-2.2 1.1-3.3 8.8-14.2 75.6-14.2 75.6l17.5 83.3 19.7-26.3-12.1-46 12.1-46-10.9-48.3zM624.1 160.4h6.6l16.4 88.8-15.3 69-15.4-25.2 4.4-27.4-2.2-24.1-7.6-14.3zM578.5 99.6l-4.9-1.2s-3.7-20.7-12.2-18.3S531 85 531 75.2s20.7-18.3 32.9-17.1 27.8 5.3 31.7 23.2c6.3 28.7-13 36-13 36l.3-1c1.8-6 .1-12.4-4.4-16.7z"></path><path class="st6" d="M504.7 160.4l35.1-14.2 8.2-6 24.7 109 11.5-112.3 45.5 23.6-15.3 74.5-2.2 28.5 6.6 23s23 16.4 15.3 34-16.6 18.5-16.6 18.5-37.3-35.1-39.5-43.8-5.5-24.1-5.5-24.1-18.6 70.1-40.5 69-21.9-24.1-21.9-24.1l5.5-24.1 8.8-25.2-4.4-41.6-15.3-64.7z"></path></svg> 